<svg xmlns="http://www.w3.org/2000/svg" xmlns:xlink="http://www.w3.org/1999/xlink" id="processonSvg1000" viewBox="120.5 10.333333333333357 822.5864197530857 2086.1111111111113" width="822.5864197530857" height="2086.1111111111113"><defs id="ProcessOnDefs1001"><marker id="ProcessOnMarker1012" markerUnits="userSpaceOnUse" orient="auto" markerWidth="16.23606797749979" markerHeight="10.550836550532098" viewBox="-1.0 -1.3763819204711736 16.23606797749979 10.550836550532098" refX="-1.0" refY="3.8990363547948754"><path id="ProcessOnPath1013" d="M12.0 3.8990363547948754L0.0 7.798072709589751V0.0Z" stroke="#323232" stroke-width="2.0" fill="#323232" transform="matrix(1.0,0.0,0.0,1.0,0.0,0.0)"/></marker><marker id="ProcessOnMarker1020" markerUnits="userSpaceOnUse" orient="auto" markerWidth="16.23606797749979" markerHeight="10.550836550532098" viewBox="-1.0 -1.3763819204711736 16.23606797749979 10.550836550532098" refX="-1.0" refY="3.8990363547948754"><path id="ProcessOnPath1021" d="M12.0 3.8990363547948754L0.0 7.798072709589751V0.0Z" stroke="#323232" stroke-width="2.0" fill="#323232" transform="matrix(1.0,0.0,0.0,1.0,0.0,0.0)"/></marker><marker id="ProcessOnMarker1036" markerUnits="userSpaceOnUse" orient="auto" markerWidth="16.23606797749979" markerHeight="10.550836550532098" viewBox="-1.0 -1.3763819204711736 16.23606797749979 10.550836550532098" refX="-1.0" refY="3.8990363547948754"><path id="ProcessOnPath1037" d="M12.0 3.8990363547948754L0.0 7.798072709589751V0.0Z" stroke="#323232" stroke-width="2.0" fill="#323232" transform="matrix(1.0,0.0,0.0,1.0,0.0,0.0)"/></marker><marker id="ProcessOnMarker1044" markerUnits="userSpaceOnUse" orient="auto" markerWidth="16.23606797749979" markerHeight="10.550836550532098" viewBox="-1.0 -1.3763819204711736 16.23606797749979 10.550836550532098" refX="-1.0" refY="3.8990363547948754"><path id="ProcessOnPath1045" d="M12.0 3.8990363547948754L0.0 7.798072709589751V0.0Z" stroke="#323232" stroke-width="2.0" fill="#323232" transform="matrix(1.0,0.0,0.0,1.0,0.0,0.0)"/></marker><marker id="ProcessOnMarker1052" markerUnits="userSpaceOnUse" orient="auto" markerWidth="16.23606797749979" markerHeight="10.550836550532098" viewBox="-1.0 -1.3763819204711736 16.23606797749979 10.550836550532098" refX="-1.0" refY="3.8990363547948754"><path id="ProcessOnPath1053" d="M12.0 3.8990363547948754L0.0 7.798072709589751V0.0Z" stroke="#323232" stroke-width="2.0" fill="#323232" transform="matrix(1.0,0.0,0.0,1.0,0.0,0.0)"/></marker><marker id="ProcessOnMarker1060" markerUnits="userSpaceOnUse" orient="auto" markerWidth="16.23606797749979" markerHeight="10.550836550532098" viewBox="-1.0 -1.3763819204711736 16.23606797749979 10.550836550532098" refX="-1.0" refY="3.8990363547948754"><path id="ProcessOnPath1061" d="M12.0 3.8990363547948754L0.0 7.798072709589751V0.0Z" stroke="#323232" stroke-width="2.0" fill="#323232" transform="matrix(1.0,0.0,0.0,1.0,0.0,0.0)"/></marker><marker id="ProcessOnMarker1072" markerUnits="userSpaceOnUse" orient="auto" markerWidth="16.23606797749979" markerHeight="10.550836550532098" viewBox="-1.0 -1.3763819204711736 16.23606797749979 10.550836550532098" refX="-1.0" refY="3.8990363547948754"><path id="ProcessOnPath1073" d="M12.0 3.8990363547948754L0.0 7.798072709589751V0.0Z" stroke="#323232" stroke-width="2.0" fill="#323232" transform="matrix(1.0,0.0,0.0,1.0,0.0,0.0)"/></marker><marker id="ProcessOnMarker1082" markerUnits="userSpaceOnUse" orient="auto" markerWidth="16.23606797749979" markerHeight="10.550836550532098" viewBox="-1.0 -1.3763819204711736 16.23606797749979 10.550836550532098" refX="-1.0" refY="3.8990363547948754"><path id="ProcessOnPath1083" d="M12.0 3.8990363547948754L0.0 7.798072709589751V0.0Z" stroke="#323232" stroke-width="2.0" fill="#323232" transform="matrix(1.0,0.0,0.0,1.0,0.0,0.0)"/></marker><marker id="ProcessOnMarker1097" markerUnits="userSpaceOnUse" orient="auto" markerWidth="16.23606797749979" markerHeight="10.550836550532098" viewBox="-1.0 -1.3763819204711736 16.23606797749979 10.550836550532098" refX="-1.0" refY="3.8990363547948754"><path id="ProcessOnPath1098" d="M12.0 3.8990363547948754L0.0 7.798072709589751V0.0Z" stroke="#323232" stroke-width="2.0" fill="#323232" transform="matrix(1.0,0.0,0.0,1.0,0.0,0.0)"/></marker><marker id="ProcessOnMarker1101" markerUnits="userSpaceOnUse" orient="auto" markerWidth="16.23606797749979" markerHeight="10.550836550532098" viewBox="-1.0 -1.3763819204711736 16.23606797749979 10.550836550532098" refX="-1.0" refY="3.8990363547948754"><path id="ProcessOnPath1102" d="M12.0 3.8990363547948754L0.0 7.798072709589751V0.0Z" stroke="#323232" stroke-width="2.0" fill="#323232" transform="matrix(1.0,0.0,0.0,1.0,0.0,0.0)"/></marker><marker id="ProcessOnMarker1105" markerUnits="userSpaceOnUse" orient="auto" markerWidth="16.23606797749979" markerHeight="10.550836550532098" viewBox="-1.0 -1.3763819204711736 16.23606797749979 10.550836550532098" refX="-1.0" refY="3.8990363547948754"><path id="ProcessOnPath1106" d="M12.0 3.8990363547948754L0.0 7.798072709589751V0.0Z" stroke="#323232" stroke-width="2.0" fill="#323232" transform="matrix(1.0,0.0,0.0,1.0,0.0,0.0)"/></marker><marker id="ProcessOnMarker1113" markerUnits="userSpaceOnUse" orient="auto" markerWidth="16.23606797749979" markerHeight="10.550836550532098" viewBox="-1.0 -1.3763819204711736 16.23606797749979 10.550836550532098" refX="-1.0" refY="3.8990363547948754"><path id="ProcessOnPath1114" d="M12.0 3.8990363547948754L0.0 7.798072709589751V0.0Z" stroke="#323232" stroke-width="2.0" fill="#323232" transform="matrix(1.0,0.0,0.0,1.0,0.0,0.0)"/></marker><marker id="ProcessOnMarker1125" markerUnits="userSpaceOnUse" orient="auto" markerWidth="16.23606797749979" markerHeight="10.550836550532098" viewBox="-1.0 -1.3763819204711736 16.23606797749979 10.550836550532098" refX="-1.0" refY="3.8990363547948754"><path id="ProcessOnPath1126" d="M12.0 3.8990363547948754L0.0 7.798072709589751V0.0Z" stroke="#323232" stroke-width="2.0" fill="#323232" transform="matrix(1.0,0.0,0.0,1.0,0.0,0.0)"/></marker><marker id="ProcessOnMarker1133" markerUnits="userSpaceOnUse" orient="auto" markerWidth="16.23606797749979" markerHeight="10.550836550532098" viewBox="-1.0 -1.3763819204711736 16.23606797749979 10.550836550532098" refX="-1.0" refY="3.8990363547948754"><path id="ProcessOnPath1134" d="M12.0 3.8990363547948754L0.0 7.798072709589751V0.0Z" stroke="#323232" stroke-width="2.0" fill="#323232" transform="matrix(1.0,0.0,0.0,1.0,0.0,0.0)"/></marker><marker id="ProcessOnMarker1141" markerUnits="userSpaceOnUse" orient="auto" markerWidth="16.23606797749979" markerHeight="10.550836550532098" viewBox="-1.0 -1.3763819204711736 16.23606797749979 10.550836550532098" refX="-1.0" refY="3.8990363547948754"><path id="ProcessOnPath1142" d="M12.0 3.8990363547948754L0.0 7.798072709589751V0.0Z" stroke="#323232" stroke-width="2.0" fill="#323232" transform="matrix(1.0,0.0,0.0,1.0,0.0,0.0)"/></marker><marker id="ProcessOnMarker1155" markerUnits="userSpaceOnUse" orient="auto" markerWidth="16.23606797749979" markerHeight="10.550836550532098" viewBox="-1.0 -1.3763819204711736 16.23606797749979 10.550836550532098" refX="-1.0" refY="3.8990363547948754"><path id="ProcessOnPath1156" d="M12.0 3.8990363547948754L0.0 7.798072709589751V0.0Z" stroke="#323232" stroke-width="2.0" fill="#323232" transform="matrix(1.0,0.0,0.0,1.0,0.0,0.0)"/></marker><marker id="ProcessOnMarker1168" markerUnits="userSpaceOnUse" orient="auto" markerWidth="16.23606797749979" markerHeight="10.550836550532098" viewBox="-1.0 -1.3763819204711736 16.23606797749979 10.550836550532098" refX="-1.0" refY="3.8990363547948754"><path id="ProcessOnPath1169" d="M12.0 3.8990363547948754L0.0 7.798072709589751V0.0Z" stroke="#323232" stroke-width="2.0" fill="#323232" transform="matrix(1.0,0.0,0.0,1.0,0.0,0.0)"/></marker><marker id="ProcessOnMarker1201" markerUnits="userSpaceOnUse" orient="auto" markerWidth="16.23606797749979" markerHeight="10.550836550532098" viewBox="-1.0 -1.3763819204711736 16.23606797749979 10.550836550532098" refX="-1.0" refY="3.8990363547948754"><path id="ProcessOnPath1202" d="M12.0 3.8990363547948754L0.0 7.798072709589751V0.0Z" stroke="#323232" stroke-width="2.0" fill="#323232" transform="matrix(1.0,0.0,0.0,1.0,0.0,0.0)"/></marker><marker id="ProcessOnMarker1214" markerUnits="userSpaceOnUse" orient="auto" markerWidth="16.23606797749979" markerHeight="10.550836550532098" viewBox="-1.0 -1.3763819204711736 16.23606797749979 10.550836550532098" refX="-1.0" refY="3.8990363547948754"><path id="ProcessOnPath1215" d="M12.0 3.8990363547948754L0.0 7.798072709589751V0.0Z" stroke="#323232" stroke-width="2.0" fill="#323232" transform="matrix(1.0,0.0,0.0,1.0,0.0,0.0)"/></marker><marker id="ProcessOnMarker1226" markerUnits="userSpaceOnUse" orient="auto" markerWidth="16.23606797749979" markerHeight="10.550836550532098" viewBox="-1.0 -1.3763819204711736 16.23606797749979 10.550836550532098" refX="-1.0" refY="3.8990363547948754"><path id="ProcessOnPath1227" d="M12.0 3.8990363547948754L0.0 7.798072709589751V0.0Z" stroke="#323232" stroke-width="2.0" fill="#323232" transform="matrix(1.0,0.0,0.0,1.0,0.0,0.0)"/></marker><marker id="ProcessOnMarker1234" markerUnits="userSpaceOnUse" orient="auto" markerWidth="16.23606797749979" markerHeight="10.550836550532098" viewBox="-1.0 -1.3763819204711736 16.23606797749979 10.550836550532098" refX="-1.0" refY="3.8990363547948754"><path id="ProcessOnPath1235" d="M12.0 3.8990363547948754L0.0 7.798072709589751V0.0Z" stroke="#323232" stroke-width="2.0" fill="#323232" transform="matrix(1.0,0.0,0.0,1.0,0.0,0.0)"/></marker><marker id="ProcessOnMarker1269" markerUnits="userSpaceOnUse" orient="auto" markerWidth="16.23606797749979" markerHeight="10.550836550532098" viewBox="-1.0 -1.3763819204711736 16.23606797749979 10.550836550532098" refX="-1.0" refY="3.8990363547948754"><path id="ProcessOnPath1270" d="M12.0 3.8990363547948754L0.0 7.798072709589751V0.0Z" stroke="#323232" stroke-width="2.0" fill="#323232" transform="matrix(1.0,0.0,0.0,1.0,0.0,0.0)"/></marker><marker id="ProcessOnMarker1282" markerUnits="userSpaceOnUse" orient="auto" markerWidth="16.23606797749979" markerHeight="10.550836550532098" viewBox="-1.0 -1.3763819204711736 16.23606797749979 10.550836550532098" refX="-1.0" refY="3.8990363547948754"><path id="ProcessOnPath1283" d="M12.0 3.8990363547948754L0.0 7.798072709589751V0.0Z" stroke="#323232" stroke-width="2.0" fill="#323232" transform="matrix(1.0,0.0,0.0,1.0,0.0,0.0)"/></marker></defs><g id="ProcessOnG1002"><path id="ProcessOnPath1003" d="M120.5 10.333333333333357H943.0864197530857V2096.444444444445H120.5V10.333333333333485Z" fill="none"/><g id="ProcessOnG1004"><g id="ProcessOnG1005" transform="matrix(1.0,0.0,0.0,1.0,403.12345679012344,171.33333333333323)" opacity="1.0"><path id="ProcessOnPath1006" d="M0.0 0.0L100.0 0.0L100.0 70.0L0.0 70.0Z" stroke="#323232" stroke-width="2.0" stroke-dasharray="none" opacity="1.0" fill="#ffffff"/><g id="ProcessOnG1007" transform="matrix(1.0,0.0,0.0,1.0,10.0,18.75)"><text id="ProcessOnText1008" fill="#000000" font-size="13" x="39.0" y="13.325" font-family="Arial" font-weight="normal" font-style="normal" text-decoration="none" family="Arial" text-anchor="middle" size="13">Transfer EOS</text><text id="ProcessOnText1009" fill="#000000" font-size="13" x="39.0" y="29.575" font-family="Arial" font-weight="normal" font-style="normal" text-decoration="none" family="Arial" text-anchor="middle" size="13">to Contract</text></g></g><g id="ProcessOnG1010"><path id="ProcessOnPath1011" d="M453.0 243.3333333333332L453.0 279.3333333333332L453.0 279.3333333333332L453.0 300.09726535583343" stroke="#323232" stroke-width="2.0" stroke-dasharray="none" fill="none" marker-end="url(#ProcessOnMarker1012)"/></g><g id="ProcessOnG1014" transform="matrix(1.0,0.0,0.0,1.0,369.0,320.3333333333332)" opacity="1.0"><path id="ProcessOnPath1015" d="M0.0 43.5L84.0 0.0L168.0 43.5L84.0 87.0L0.0 43.5Z" stroke="#323232" stroke-width="2.0" stroke-dasharray="none" opacity="1.0" fill="#ffffff"/><g id="ProcessOnG1016" transform="matrix(1.0,0.0,0.0,1.0,10.0,35.375)"><text id="ProcessOnText1017" fill="#000000" font-size="13" x="73.0" y="13.325" font-family="Arial" font-weight="normal" font-style="normal" text-decoration="none" family="Arial" text-anchor="middle" size="13">Price Plan Matched？</text></g></g><g id="ProcessOnG1018"><path id="ProcessOnPath1019" d="M537.0 363.8333333333333L590.3888888888889 363.8333333333333L590.3888888888889 363.8333333333333L628.541709800278 363.8333333333333" stroke="#323232" stroke-width="2.0" stroke-dasharray="none" fill="none" marker-end="url(#ProcessOnMarker1020)"/></g><g id="ProcessOnG1022" transform="matrix(1.0,0.0,0.0,1.0,853.0864197530857,328.40123456790207)" opacity="1.0"><path id="ProcessOnPath1023" d="M0.0 35.0C0.0 -11.666666666666666 70.0 -11.666666666666666 70.0 35.0C70.0 81.66666666666667 0.0 81.66666666666667 0.0 35.0Z" stroke="#323232" stroke-width="2.0" stroke-dasharray="none" opacity="1.0" fill="#ffffff"/><g id="ProcessOnG1024" transform="matrix(1.0,0.0,0.0,1.0,10.0,26.875)"><text id="ProcessOnText1025" fill="#000000" font-size="13" x="24.0" y="13.325" font-family="Arial" font-weight="normal" font-style="normal" text-decoration="none" family="Arial" text-anchor="middle" size="13">END</text></g></g><g id="ProcessOnG1026" transform="matrix(1.0,0.0,0.0,1.0,540.0,321.3333333333332)" opacity="1.0"><path id="ProcessOnPath1027" d="M0.0 0.0L100.0 0.0L100.0 49.0L0.0 49.0Z" stroke="none" stroke-width="0.0" stroke-dasharray="none" opacity="1.0" fill="none"/><g id="ProcessOnG1028" transform="matrix(1.0,0.0,0.0,1.0,0.0,16.375)"><text id="ProcessOnText1029" fill="#000000" font-size="13" x="49.0" y="13.325" font-family="Arial" font-weight="normal" font-style="normal" text-decoration="none" family="Arial" text-anchor="middle" size="13">NO</text></g></g><g id="ProcessOnG1030" transform="matrix(1.0,0.0,0.0,1.0,383.0,411.3333333333335)" opacity="1.0"><path id="ProcessOnPath1031" d="M0.0 0.0L100.0 0.0L100.0 49.0L0.0 49.0Z" stroke="none" stroke-width="0.0" stroke-dasharray="none" opacity="1.0" fill="none"/><g id="ProcessOnG1032" transform="matrix(1.0,0.0,0.0,1.0,0.0,16.375)"><text id="ProcessOnText1033" fill="#000000" font-size="13" x="49.0" y="13.325" font-family="Arial" font-weight="normal" font-style="normal" text-decoration="none" family="Arial" text-anchor="middle" size="13">YES</text></g></g><g id="ProcessOnG1034"><path id="ProcessOnPath1035" d="M453.0 407.3333333333335L453.0 442.3333333333336L453.0 442.3333333333336L453.0 462.0972653558338" stroke="#323232" stroke-width="2.0" stroke-dasharray="none" fill="none" marker-end="url(#ProcessOnMarker1036)"/></g><g id="ProcessOnG1038" transform="matrix(1.0,0.0,0.0,1.0,403.0,477.3333333333336)" opacity="1.0"><path id="ProcessOnPath1039" d="M0.0 0.0L100.0 0.0L100.0 70.0L0.0 70.0Z" stroke="#323232" stroke-width="2.0" stroke-dasharray="none" opacity="1.0" fill="#ffffff"/><g id="ProcessOnG1040" transform="matrix(1.0,0.0,0.0,1.0,10.0,26.875)"><text id="ProcessOnText1041" fill="#000000" font-size="13" x="39.0" y="13.325" font-family="Arial" font-weight="normal" font-style="normal" text-decoration="none" family="Arial" text-anchor="middle" size="13">Create Order</text></g></g><g id="ProcessOnG1042"><path id="ProcessOnPath1043" d="M453.0 547.3333333333336L453.0 581.3333333333336L453.0 581.3333333333336L453.0 600.0972653558338" stroke="#323232" stroke-width="2.0" stroke-dasharray="none" fill="none" marker-end="url(#ProcessOnMarker1044)"/></g><g id="ProcessOnG1046" transform="matrix(1.0,0.0,0.0,1.0,403.0,615.3333333333336)" opacity="1.0"><path id="ProcessOnPath1047" d="M0.0 0.0L100.0 0.0L100.0 70.0L0.0 70.0Z" stroke="#323232" stroke-width="2.0" stroke-dasharray="none" opacity="1.0" fill="#ffffff"/><g id="ProcessOnG1048" transform="matrix(1.0,0.0,0.0,1.0,10.0,26.875)"><text id="ProcessOnText1049" fill="#000000" font-size="13" x="39.0" y="13.325" font-family="Arial" font-weight="normal" font-style="normal" text-decoration="none" family="Arial" text-anchor="middle" size="13">delegatebw</text></g></g><g id="ProcessOnG1050"><path id="ProcessOnPath1051" d="M453.0 685.3333333333336L453.0 765.166666666667L453.0 765.166666666667L453.0 829.7639320225004" stroke="#323232" stroke-width="2.0" stroke-dasharray="none" fill="none" marker-end="url(#ProcessOnMarker1052)"/></g><g id="ProcessOnG1054" transform="matrix(1.0,0.0,0.0,1.0,369.12345679012344,987.5555555555558)" opacity="1.0"><path id="ProcessOnPath1055" d="M0.0 43.5L84.0 0.0L168.0 43.5L84.0 87.0L0.0 43.5Z" stroke="#323232" stroke-width="2.0" stroke-dasharray="none" opacity="1.0" fill="#ffffff"/><g id="ProcessOnG1056" transform="matrix(1.0,0.0,0.0,1.0,10.0,35.375)"><text id="ProcessOnText1057" fill="#000000" font-size="13" x="73.0" y="13.325" font-family="Arial" font-weight="normal" font-style="normal" text-decoration="none" family="Arial" text-anchor="middle" size="13">Free Plan?</text></g></g><g id="ProcessOnG1058"><path id="ProcessOnPath1059" d="M537.1234567901234 1031.0555555555554L590.0617283950617 1031.0555555555554L590.0617283950617 1030.5L627.7639320225002 1030.5" stroke="#323232" stroke-width="2.0" stroke-dasharray="none" fill="none" marker-end="url(#ProcessOnMarker1060)"/></g><g id="ProcessOnG1062" transform="matrix(1.0,0.0,0.0,1.0,534.0,988.9999999999999)" opacity="1.0"><path id="ProcessOnPath1063" d="M0.0 0.0L100.0 0.0L100.0 49.0L0.0 49.0Z" stroke="none" stroke-width="0.0" stroke-dasharray="none" opacity="1.0" fill="none"/><g id="ProcessOnG1064" transform="matrix(1.0,0.0,0.0,1.0,0.0,16.375)"><text id="ProcessOnText1065" fill="#000000" font-size="13" x="49.0" y="13.325" font-family="Arial" font-weight="normal" font-style="normal" text-decoration="none" family="Arial" text-anchor="middle" size="13">YES</text></g></g><g id="ProcessOnG1066" transform="matrix(1.0,0.0,0.0,1.0,643.0,995.5000000000001)" opacity="1.0"><path id="ProcessOnPath1067" d="M0.0 0.0L100.0 0.0L100.0 70.0L0.0 70.0Z" stroke="#323232" stroke-width="2.0" stroke-dasharray="none" opacity="1.0" fill="#ffffff"/><g id="ProcessOnG1068" transform="matrix(1.0,0.0,0.0,1.0,10.0,26.875)"><text id="ProcessOnText1069" fill="#000000" font-size="13" x="39.0" y="13.325" font-family="Arial" font-weight="normal" font-style="normal" text-decoration="none" family="Arial" text-anchor="middle" size="13">Auto Refund</text></g></g><g id="ProcessOnG1070"><path id="ProcessOnPath1071" d="M453.12345679012344 1074.5555555555554L453.12345679012344 1133.2777777777774L453.0 1133.2777777777774L453.0 1176.7639320224998" stroke="#323232" stroke-width="2.0" stroke-dasharray="none" fill="none" marker-end="url(#ProcessOnMarker1072)"/></g><g id="ProcessOnG1074" transform="matrix(1.0,0.0,0.0,1.0,403.0,1191.9999999999995)" opacity="1.0"><path id="ProcessOnPath1075" d="M0.0 0.0L100.0 0.0L100.0 70.0L0.0 70.0Z" stroke="#323232" stroke-width="2.0" stroke-dasharray="none" opacity="1.0" fill="#ffffff"/><g id="ProcessOnG1076" transform="matrix(1.0,0.0,0.0,1.0,10.0,10.625)"><text id="ProcessOnText1077" fill="#000000" font-size="13" x="39.0" y="13.325" font-family="Arial" font-weight="normal" font-style="normal" text-decoration="none" family="Arial" text-anchor="middle" size="13">Deferred </text><text id="ProcessOnText1078" fill="#000000" font-size="13" x="39.0" y="29.575" font-family="Arial" font-weight="normal" font-style="normal" text-decoration="none" family="Arial" text-anchor="middle" size="13">expireorder</text><text id="ProcessOnText1079" fill="#000000" font-size="13" x="39.0" y="45.825" font-family="Arial" font-weight="normal" font-style="normal" text-decoration="none" family="Arial" text-anchor="middle" size="13">action</text></g></g><g id="ProcessOnG1080"><path id="ProcessOnPath1081" d="M693.0 1065.5L693.0 1226.9999999999995L518.2360679774998 1226.9999999999995" stroke="#323232" stroke-width="2.0" stroke-dasharray="none" fill="none" marker-end="url(#ProcessOnMarker1082)"/></g><g id="ProcessOnG1084" transform="matrix(1.0,0.0,0.0,1.0,148.0,617.3333333333336)" opacity="1.0"><path id="ProcessOnPath1085" d="M0.0 0.0L100.0 0.0L0.0 0.0M0.0 70.0L100.0 70.0L0.0 70.0Z" stroke="#323232" stroke-width="2.0" stroke-dasharray="none" opacity="1.0" fill="#ffffff"/><path id="ProcessOnPath1086" d="M0.0 0.0L100.0 0.0L100.0 70.0L0.0 70.0L0.0 0.0Z" stroke="none" stroke-width="0.0" stroke-dasharray="none" opacity="1.0" fill="none"/><g id="ProcessOnG1087" transform="matrix(1.0,0.0,0.0,1.0,10.0,18.75)"><text id="ProcessOnText1088" fill="#000000" font-size="13" x="39.0" y="13.325" font-family="Arial" font-weight="normal" font-style="normal" text-decoration="none" family="Arial" text-anchor="middle" size="13">Creditor </text><text id="ProcessOnText1089" fill="#000000" font-size="13" x="39.0" y="29.575" font-family="Arial" font-weight="normal" font-style="normal" text-decoration="none" family="Arial" text-anchor="middle" size="13">Table</text></g></g><g id="ProcessOnG1090" transform="matrix(1.0,0.0,0.0,1.0,148.0,328.8333333333332)" opacity="1.0"><path id="ProcessOnPath1091" d="M0.0 0.0L100.0 0.0L0.0 0.0M0.0 70.0L100.0 70.0L0.0 70.0Z" stroke="#323232" stroke-width="2.0" stroke-dasharray="none" opacity="1.0" fill="#ffffff"/><path id="ProcessOnPath1092" d="M0.0 0.0L100.0 0.0L100.0 70.0L0.0 70.0L0.0 0.0Z" stroke="none" stroke-width="0.0" stroke-dasharray="none" opacity="1.0" fill="none"/><g id="ProcessOnG1093" transform="matrix(1.0,0.0,0.0,1.0,10.0,26.875)"><text id="ProcessOnText1094" fill="#000000" font-size="13" x="39.0" y="13.325" font-family="Arial" font-weight="normal" font-style="normal" text-decoration="none" family="Arial" text-anchor="middle" size="13">Plan Table</text></g></g><g id="ProcessOnG1095"><path id="ProcessOnPath1096" d="M257.0 652.8333333333336L324.5 652.8333333333336L324.5 652.8333333333336L376.7639320225002 652.8333333333336" stroke="#323232" stroke-width="2.0" stroke-dasharray="none" fill="none" marker-end="url(#ProcessOnMarker1097)"/></g><g id="ProcessOnG1099"><path id="ProcessOnPath1100" d="M257.0 363.8333333333333L310.0 363.8333333333333L310.0 363.8333333333333L347.7639320225002 363.8333333333333" stroke="#323232" stroke-width="2.0" stroke-dasharray="none" fill="none" marker-end="url(#ProcessOnMarker1101)"/></g><g id="ProcessOnG1103"><path id="ProcessOnPath1104" d="M453.0 1261.9999999999995L453.0 1289.9999999999995L453.0 1289.9999999999995L453.0 1302.7639320224998" stroke="#323232" stroke-width="2.0" stroke-dasharray="none" fill="none" marker-end="url(#ProcessOnMarker1105)"/></g><g id="ProcessOnG1107" transform="matrix(1.0,0.0,0.0,1.0,402.0,1318.9999999999995)" opacity="1.0"><path id="ProcessOnPath1108" d="M0.0 0.0L100.0 0.0L100.0 49.0L0.0 49.0Z" stroke="none" stroke-width="0.0" stroke-dasharray="none" opacity="1.0" fill="none"/><g id="ProcessOnG1109" transform="matrix(1.0,0.0,0.0,1.0,0.0,16.375)"><text id="ProcessOnText1110" fill="#000000" font-size="13" x="49.0" y="13.325" font-family="Arial" font-weight="normal" font-style="normal" text-decoration="none" family="Arial" text-anchor="middle" size="13">order expired</text></g></g><g id="ProcessOnG1111"><path id="ProcessOnPath1112" d="M453.0 1361.9999999999995L453.0 1389.9999999999995L453.0 1389.9999999999995L453.0 1402.7639320224998" stroke="#323232" stroke-width="2.0" stroke-dasharray="none" fill="none" marker-end="url(#ProcessOnMarker1113)"/></g><g id="ProcessOnG1115" transform="matrix(1.0,0.0,0.0,1.0,402.0,1422.9999999999995)" opacity="1.0"><path id="ProcessOnPath1116" d="M0.0 0.0L100.0 0.0L100.0 70.0L0.0 70.0Z" stroke="#323232" stroke-width="2.0" stroke-dasharray="none" opacity="1.0" fill="#ffffff"/><g id="ProcessOnG1117" transform="matrix(1.0,0.0,0.0,1.0,10.0,26.875)"><text id="ProcessOnText1118" fill="#000000" font-size="13" x="39.0" y="13.325" font-family="Arial" font-weight="normal" font-style="normal" text-decoration="none" family="Arial" text-anchor="middle" size="13">undelegate</text></g></g><g id="ProcessOnG1119" transform="matrix(1.0,0.0,0.0,1.0,368.0,1645.222222222222)" opacity="1.0"><path id="ProcessOnPath1120" d="M0.0 43.5L84.0 0.0L168.0 43.5L84.0 87.0L0.0 43.5Z" stroke="#323232" stroke-width="2.0" stroke-dasharray="none" opacity="1.0" fill="#ffffff"/><g id="ProcessOnG1121" transform="matrix(1.0,0.0,0.0,1.0,10.0,35.375)"><text id="ProcessOnText1122" fill="#000000" font-size="13" x="73.0" y="13.325" font-family="Arial" font-weight="normal" font-style="normal" text-decoration="none" family="Arial" text-anchor="middle" size="13">Free Order?</text></g></g><g id="ProcessOnG1123"><path id="ProcessOnPath1124" d="M452.0 1492.9999999999995L452.0 1569.1111111111109L452.0 1569.1111111111109L452.0 1629.9861542447222" stroke="#323232" stroke-width="2.0" stroke-dasharray="none" fill="none" marker-end="url(#ProcessOnMarker1125)"/></g><g id="ProcessOnG1127" transform="matrix(1.0,0.0,0.0,1.0,534.0,1637.222222222222)" opacity="1.0"><path id="ProcessOnPath1128" d="M0.0 0.0L100.0 0.0L100.0 49.0L0.0 49.0Z" stroke="none" stroke-width="0.0" stroke-dasharray="none" opacity="1.0" fill="none"/><g id="ProcessOnG1129" transform="matrix(1.0,0.0,0.0,1.0,0.0,16.375)"><text id="ProcessOnText1130" fill="#000000" font-size="13" x="49.0" y="13.325" font-family="Arial" font-weight="normal" font-style="normal" text-decoration="none" family="Arial" text-anchor="middle" size="13">YES</text></g></g><g id="ProcessOnG1131"><path id="ProcessOnPath1132" d="M536.0 1688.722222222222L589.5 1688.722222222222L589.5 1688.722222222222L627.7639320225002 1688.722222222222" stroke="#323232" stroke-width="2.0" stroke-dasharray="none" fill="none" marker-end="url(#ProcessOnMarker1133)"/></g><g id="ProcessOnG1135" transform="matrix(1.0,0.0,0.0,1.0,643.0,1653.722222222222)" opacity="1.0"><path id="ProcessOnPath1136" d="M0.0 35.0C0.0 -11.666666666666666 70.0 -11.666666666666666 70.0 35.0C70.0 81.66666666666667 0.0 81.66666666666667 0.0 35.0Z" stroke="#323232" stroke-width="2.0" stroke-dasharray="none" opacity="1.0" fill="#ffffff"/><g id="ProcessOnG1137" transform="matrix(1.0,0.0,0.0,1.0,10.0,26.875)"><text id="ProcessOnText1138" fill="#000000" font-size="13" x="24.0" y="13.325" font-family="Arial" font-weight="normal" font-style="normal" text-decoration="none" family="Arial" text-anchor="middle" size="13">END</text></g></g><g id="ProcessOnG1139"><path id="ProcessOnPath1140" d="M452.0 1732.222222222222L452.0 1771.222222222222L452.0 1771.222222222222L452.0 1794.9861542447222" stroke="#323232" stroke-width="2.0" stroke-dasharray="none" fill="none" marker-end="url(#ProcessOnMarker1141)"/></g><g id="ProcessOnG1143" transform="matrix(1.0,0.0,0.0,1.0,383.0,1736.222222222222)" opacity="1.0"><path id="ProcessOnPath1144" d="M0.0 0.0L100.0 0.0L100.0 49.0L0.0 49.0Z" stroke="none" stroke-width="0.0" stroke-dasharray="none" opacity="1.0" fill="none"/><g id="ProcessOnG1145" transform="matrix(1.0,0.0,0.0,1.0,0.0,16.375)"><text id="ProcessOnText1146" fill="#000000" font-size="13" x="49.0" y="13.325" font-family="Arial" font-weight="normal" font-style="normal" text-decoration="none" family="Arial" text-anchor="middle" size="13">NO</text></g></g><g id="ProcessOnG1147" transform="matrix(1.0,0.0,0.0,1.0,403.1111111111111,1777.333333333334)" opacity="1.0"><path id="ProcessOnPath1148" d="M0.0 0.0L100.0 0.0L100.0 70.0L0.0 70.0Z" stroke="#323232" stroke-width="2.0" stroke-dasharray="none" opacity="1.0" fill="#ffffff"/><g id="ProcessOnG1149" transform="matrix(1.0,0.0,0.0,1.0,10.0,10.625)"><text id="ProcessOnText1150" fill="#000000" font-size="13" x="39.0" y="13.325" font-family="Arial" font-weight="normal" font-style="normal" text-decoration="none" family="Arial" text-anchor="middle" size="13">Transfer </text><text id="ProcessOnText1151" fill="#000000" font-size="13" x="39.0" y="29.575" font-family="Arial" font-weight="normal" font-style="normal" text-decoration="none" family="Arial" text-anchor="middle" size="13">income to </text><text id="ProcessOnText1152" fill="#000000" font-size="13" x="39.0" y="45.825" font-family="Arial" font-weight="normal" font-style="normal" text-decoration="none" family="Arial" text-anchor="middle" size="13">MaskTransfer</text></g></g><g id="ProcessOnG1153"><path id="ProcessOnPath1154" d="M453.1111111111111 1847.333333333334L453.1111111111111 1926.8888888888894L452.0 1926.8888888888894L452.0 1991.208376466945" stroke="#323232" stroke-width="2.0" stroke-dasharray="none" fill="none" marker-end="url(#ProcessOnMarker1155)"/></g><g id="ProcessOnG1157" transform="matrix(1.0,0.0,0.0,1.0,417.0,2006.4444444444448)" opacity="1.0"><path id="ProcessOnPath1158" d="M0.0 35.0C0.0 -11.666666666666666 70.0 -11.666666666666666 70.0 35.0C70.0 81.66666666666667 0.0 81.66666666666667 0.0 35.0Z" stroke="#323232" stroke-width="2.0" stroke-dasharray="none" opacity="1.0" fill="#ffffff"/><g id="ProcessOnG1159" transform="matrix(1.0,0.0,0.0,1.0,10.0,26.875)"><text id="ProcessOnText1160" fill="#000000" font-size="13" x="24.0" y="13.325" font-family="Arial" font-weight="normal" font-style="normal" text-decoration="none" family="Arial" text-anchor="middle" size="13">END</text></g></g><g id="ProcessOnG1161" transform="matrix(1.0,0.0,0.0,1.0,148.0,477.3333333333336)" opacity="1.0"><path id="ProcessOnPath1162" d="M0.0 0.0L100.0 0.0L0.0 0.0M0.0 70.0L100.0 70.0L0.0 70.0Z" stroke="#323232" stroke-width="2.0" stroke-dasharray="none" opacity="1.0" fill="#ffffff"/><path id="ProcessOnPath1163" d="M0.0 0.0L100.0 0.0L100.0 70.0L0.0 70.0L0.0 0.0Z" stroke="none" stroke-width="0.0" stroke-dasharray="none" opacity="1.0" fill="none"/><g id="ProcessOnG1164" transform="matrix(1.0,0.0,0.0,1.0,10.0,26.875)"><text id="ProcessOnText1165" fill="#000000" font-size="13" x="39.0" y="13.325" font-family="Arial" font-weight="normal" font-style="normal" text-decoration="none" family="Arial" text-anchor="middle" size="13">Order Table</text></g></g><g id="ProcessOnG1166"><path id="ProcessOnPath1167" d="M403.0 512.3333333333336L341.5 512.3333333333336L341.5 512.3333333333336L295.2360679774998 512.3333333333336" stroke="#323232" stroke-width="2.0" stroke-dasharray="none" fill="none" marker-end="url(#ProcessOnMarker1168)"/></g><g id="ProcessOnG1170" transform="matrix(1.0,0.0,0.0,1.0,292.0,471.3333333333336)" opacity="1.0"><path id="ProcessOnPath1171" d="M0.0 0.0L100.0 0.0L100.0 49.0L0.0 49.0Z" stroke="none" stroke-width="0.0" stroke-dasharray="none" opacity="1.0" fill="none"/><g id="ProcessOnG1172" transform="matrix(1.0,0.0,0.0,1.0,0.0,16.375)"><text id="ProcessOnText1173" fill="#000000" font-size="13" x="49.0" y="13.325" font-family="Arial" font-weight="normal" font-style="normal" text-decoration="none" family="Arial" text-anchor="middle" size="13">CREATE</text></g></g><g id="ProcessOnG1174" transform="matrix(1.0,0.0,0.0,1.0,140.5,30.333333333333357)" opacity="1.0"><path id="ProcessOnPath1175" d="M0.0 0.0L623.0 0.0L623.0 88.0L0.0 88.0Z" stroke="none" stroke-width="0.0" stroke-dasharray="none" opacity="1.0" fill="none"/><g id="ProcessOnG1176" transform="matrix(1.0,0.0,0.0,1.0,0.0,19.0)"><text id="ProcessOnText1177" fill="#000000" font-size="40" x="310.5" y="41.0" font-family="Arial" font-weight="normal" font-style="normal" text-decoration="none" family="Arial" text-anchor="middle" size="40">Order Process of BankofStaked</text></g></g><g id="ProcessOnG1178" transform="matrix(1.0,0.0,0.0,1.0,537.5,118.33333333333337)" opacity="1.0"><path id="ProcessOnPath1179" d="M0.0 0.0L257.5 0.0L257.5 39.0L0.0 39.0Z" stroke="none" stroke-width="0.0" stroke-dasharray="none" opacity="1.0" fill="none"/><g id="ProcessOnG1180" transform="matrix(1.0,0.0,0.0,1.0,0.0,7.0)"><text id="ProcessOnText1181" fill="#000000" font-size="20" x="127.75" y="20.5" font-family="Arial" font-weight="normal" font-style="normal" text-decoration="none" family="Arial" text-anchor="middle" size="20">by EOSLaoMao</text></g></g><g id="ProcessOnG1182" transform="matrix(1.0,0.0,0.0,1.0,262.0,326.3333333333332)" opacity="1.0"><path id="ProcessOnPath1183" d="M0.0 0.0L100.0 0.0L100.0 49.0L0.0 49.0Z" stroke="none" stroke-width="0.0" stroke-dasharray="none" opacity="1.0" fill="none"/><g id="ProcessOnG1184" transform="matrix(1.0,0.0,0.0,1.0,0.0,16.375)"><text id="ProcessOnText1185" fill="#000000" font-size="13" x="49.0" y="13.325" font-family="Arial" font-weight="normal" font-style="normal" text-decoration="none" family="Arial" text-anchor="middle" size="13">Match Plan</text></g></g><g id="ProcessOnG1186" transform="matrix(1.0,0.0,0.0,1.0,273.0,615.3333333333336)" opacity="1.0"><path id="ProcessOnPath1187" d="M0.0 0.0L100.0 0.0L100.0 49.0L0.0 49.0Z" stroke="none" stroke-width="0.0" stroke-dasharray="none" opacity="1.0" fill="none"/><g id="ProcessOnG1188" transform="matrix(1.0,0.0,0.0,1.0,0.0,16.375)"><text id="ProcessOnText1189" fill="#000000" font-size="13" x="49.0" y="13.325" font-family="Arial" font-weight="normal" font-style="normal" text-decoration="none" family="Arial" text-anchor="middle" size="13">Active Creditor</text></g></g><g id="ProcessOnG1190" transform="matrix(1.0,0.0,0.0,1.0,402.0,1522.9999999999995)" opacity="1.0"><path id="ProcessOnPath1191" d="M0.0 0.0L100.0 0.0L100.0 70.0L0.0 70.0Z" stroke="#323232" stroke-width="2.0" stroke-dasharray="none" opacity="1.0" fill="#ffffff"/><g id="ProcessOnG1192" transform="matrix(1.0,0.0,0.0,1.0,10.0,26.875)"><text id="ProcessOnText1193" fill="#000000" font-size="13" x="39.0" y="13.325" font-family="Arial" font-weight="normal" font-style="normal" text-decoration="none" family="Arial" text-anchor="middle" size="13">expireorder</text></g></g><g id="ProcessOnG1194" transform="matrix(1.0,0.0,0.0,1.0,148.0,1509.9999999999995)" opacity="1.0"><path id="ProcessOnPath1195" d="M0.0 0.0L100.0 0.0L0.0 0.0M0.0 40.0L100.0 40.0L0.0 40.0Z" stroke="#323232" stroke-width="2.0" stroke-dasharray="none" opacity="1.0" fill="#ffffff"/><path id="ProcessOnPath1196" d="M0.0 0.0L100.0 0.0L100.0 40.0L0.0 40.0L0.0 0.0Z" stroke="none" stroke-width="0.0" stroke-dasharray="none" opacity="1.0" fill="none"/><g id="ProcessOnG1197" transform="matrix(1.0,0.0,0.0,1.0,10.0,11.875)"><text id="ProcessOnText1198" fill="#000000" font-size="13" x="39.0" y="13.325" font-family="Arial" font-weight="normal" font-style="normal" text-decoration="none" family="Arial" text-anchor="middle" size="13">Order Table</text></g></g><g id="ProcessOnG1199"><path id="ProcessOnPath1200" d="M403.0 1538.9999999999995L341.5 1538.9999999999995L341.5 1538.9999999999995L295.2360679774998 1538.9999999999995" stroke="#323232" stroke-width="2.0" stroke-dasharray="none" fill="none" marker-end="url(#ProcessOnMarker1201)"/></g><g id="ProcessOnG1203" transform="matrix(1.0,0.0,0.0,1.0,292.0,1497.9999999999995)" opacity="1.0"><path id="ProcessOnPath1204" d="M0.0 0.0L100.0 0.0L100.0 49.0L0.0 49.0Z" stroke="none" stroke-width="0.0" stroke-dasharray="none" opacity="1.0" fill="none"/><g id="ProcessOnG1205" transform="matrix(1.0,0.0,0.0,1.0,0.0,16.375)"><text id="ProcessOnText1206" fill="#000000" font-size="13" x="49.0" y="13.325" font-family="Arial" font-weight="normal" font-style="normal" text-decoration="none" family="Arial" text-anchor="middle" size="13">DELETE</text></g></g><g id="ProcessOnG1207" transform="matrix(1.0,0.0,0.0,1.0,148.0,1559.9999999999995)" opacity="1.0"><path id="ProcessOnPath1208" d="M0.0 0.0L100.0 0.0L0.0 0.0M0.0 40.0L100.0 40.0L0.0 40.0Z" stroke="#323232" stroke-width="2.0" stroke-dasharray="none" opacity="1.0" fill="#ffffff"/><path id="ProcessOnPath1209" d="M0.0 0.0L100.0 0.0L100.0 40.0L0.0 40.0L0.0 0.0Z" stroke="none" stroke-width="0.0" stroke-dasharray="none" opacity="1.0" fill="none"/><g id="ProcessOnG1210" transform="matrix(1.0,0.0,0.0,1.0,10.0,11.875)"><text id="ProcessOnText1211" fill="#000000" font-size="13" x="39.0" y="13.325" font-family="Arial" font-weight="normal" font-style="normal" text-decoration="none" family="Arial" text-anchor="middle" size="13">History Table</text></g></g><g id="ProcessOnG1212"><path id="ProcessOnPath1213" d="M403.0 1568.9999999999995L341.5 1568.9999999999995L341.5 1568.9999999999995L295.2360679774998 1568.9999999999995" stroke="#323232" stroke-width="2.0" stroke-dasharray="none" fill="none" marker-end="url(#ProcessOnMarker1214)"/></g><g id="ProcessOnG1216" transform="matrix(1.0,0.0,0.0,1.0,292.0,1560.2222222222217)" opacity="1.0"><path id="ProcessOnPath1217" d="M0.0 0.0L100.0 0.0L100.0 49.0L0.0 49.0Z" stroke="none" stroke-width="0.0" stroke-dasharray="none" opacity="1.0" fill="none"/><g id="ProcessOnG1218" transform="matrix(1.0,0.0,0.0,1.0,0.0,16.375)"><text id="ProcessOnText1219" fill="#000000" font-size="13" x="49.0" y="13.325" font-family="Arial" font-weight="normal" font-style="normal" text-decoration="none" family="Arial" text-anchor="middle" size="13">CREATE</text></g></g><g id="ProcessOnG1220" transform="matrix(1.0,0.0,0.0,1.0,403.0,852.0000000000002)" opacity="1.0"><path id="ProcessOnPath1221" d="M0.0 0.0L100.0 0.0L100.0 70.0L0.0 70.0Z" stroke="#323232" stroke-width="2.0" stroke-dasharray="none" opacity="1.0" fill="#ffffff"/><g id="ProcessOnG1222" transform="matrix(1.0,0.0,0.0,1.0,10.0,26.875)"><text id="ProcessOnText1223" fill="#000000" font-size="13" x="39.0" y="13.325" font-family="Arial" font-weight="normal" font-style="normal" text-decoration="none" family="Arial" text-anchor="middle" size="13">check</text></g></g><g id="ProcessOnG1224"><path id="ProcessOnPath1225" d="M453.0 922.0000000000002L453.0 953.5000000000001L453.0 953.5000000000001L453.0 969.7639320225001" stroke="#323232" stroke-width="2.0" stroke-dasharray="none" fill="none" marker-end="url(#ProcessOnMarker1226)"/></g><g id="ProcessOnG1228" transform="matrix(1.0,0.0,0.0,1.0,589.0,786.5000000000002)" opacity="1.0"><path id="ProcessOnPath1229" d="M18.0 0.0Q9.0 0.0 9.0 9.0L9.0 91.5Q9.0 100.5 0.0 100.5Q9.0 100.5 9.0 109.5L9.0 192.0Q9.0 201.0 18.0 201.0" stroke="#323232" stroke-width="2.0" stroke-dasharray="none" opacity="1.0" fill="none"/><path id="ProcessOnPath1230" d="M207.0 201.0Q216.0 201.0 216.0 192.0L216.0 109.5Q216.0 100.5 225.0 100.5Q216.0 100.5 216.0 91.5L216.0 9.0Q216.0 0.0 207.0 0.0" stroke="#323232" stroke-width="2.0" stroke-dasharray="none" opacity="1.0" fill="none"/><path id="ProcessOnPath1231" d="M0.0 0.0L225.0 0.0L225.0 201.0L0.0 201.0Z" stroke="none" stroke-width="0.0" stroke-dasharray="none" opacity="1.0" fill="none"/></g><g id="ProcessOnG1232"><path id="ProcessOnPath1233" d="M503.0 887.0000000000002L543.5 887.0000000000002L543.5 887.0000000000002L568.7639320225002 887.0000000000002" stroke="#323232" stroke-width="2.0" stroke-dasharray="none" fill="none" marker-end="url(#ProcessOnMarker1234)"/></g><g id="ProcessOnG1236" transform="matrix(1.0,0.0,0.0,1.0,634.0,789.0000000000002)" opacity="1.0"><path id="ProcessOnPath1237" d="M0.0 0.0L140.5 0.0L140.5 49.0L0.0 49.0Z" stroke="none" stroke-width="0.0" stroke-dasharray="none" opacity="1.0" fill="none"/><g id="ProcessOnG1238" transform="matrix(1.0,0.0,0.0,1.0,0.0,16.375)"><text id="ProcessOnText1239" fill="#000000" font-size="13" x="69.25" y="13.325" font-family="Arial" font-weight="normal" font-style="normal" text-decoration="none" family="Arial" text-anchor="middle" size="13">Expire due orders</text></g></g><g id="ProcessOnG1240" transform="matrix(1.0,0.0,0.0,1.0,634.0,829.0000000000002)" opacity="1.0"><path id="ProcessOnPath1241" d="M0.0 0.0L140.5 0.0L140.5 49.0L0.0 49.0Z" stroke="none" stroke-width="0.0" stroke-dasharray="none" opacity="1.0" fill="none"/><g id="ProcessOnG1242" transform="matrix(1.0,0.0,0.0,1.0,0.0,16.375)"><text id="ProcessOnText1243" fill="#000000" font-size="13" x="69.25" y="13.325" font-family="Arial" font-weight="normal" font-style="normal" text-decoration="none" family="Arial" text-anchor="middle" size="13">Creditor rotation</text></g></g><g id="ProcessOnG1244" transform="matrix(1.0,0.0,0.0,1.0,634.0,868.0000000000002)" opacity="1.0"><path id="ProcessOnPath1245" d="M0.0 0.0L140.5 0.0L140.5 49.0L0.0 49.0Z" stroke="none" stroke-width="0.0" stroke-dasharray="none" opacity="1.0" fill="none"/><g id="ProcessOnG1246" transform="matrix(1.0,0.0,0.0,1.0,0.0,16.375)"><text id="ProcessOnText1247" fill="#000000" font-size="13" x="69.25" y="13.325" font-family="Arial" font-weight="normal" font-style="normal" text-decoration="none" family="Arial" text-anchor="middle" size="13">Expire Freelock</text></g></g><g id="ProcessOnG1248" transform="matrix(1.0,0.0,0.0,1.0,634.0,908.0000000000002)" opacity="1.0"><path id="ProcessOnPath1249" d="M0.0 0.0L140.5 0.0L140.5 49.0L0.0 49.0Z" stroke="none" stroke-width="0.0" stroke-dasharray="none" opacity="1.0" fill="none"/><g id="ProcessOnG1250" transform="matrix(1.0,0.0,0.0,1.0,0.0,16.375)"><text id="ProcessOnText1251" fill="#000000" font-size="13" x="69.25" y="13.325" font-family="Arial" font-weight="normal" font-style="normal" text-decoration="none" family="Arial" text-anchor="middle" size="13">......</text></g></g><g id="ProcessOnG1252" transform="matrix(1.0,0.0,0.0,1.0,640.7777777777778,1104.388888888889)" opacity="1.0"><path id="ProcessOnPath1253" d="M0.0 0.0L100.0 0.0L100.0 70.0L0.0 70.0Z" stroke="#323232" stroke-width="2.0" stroke-dasharray="none" opacity="1.0" fill="#ffffff"/><g id="ProcessOnG1254" transform="matrix(1.0,0.0,0.0,1.0,10.0,26.875)"><text id="ProcessOnText1255" fill="#000000" font-size="13" x="39.0" y="13.325" font-family="Arial" font-weight="normal" font-style="normal" text-decoration="none" family="Arial" text-anchor="middle" size="13">Add Freelock</text></g></g><g id="ProcessOnG1256" transform="matrix(1.0,0.0,0.0,1.0,403.1111111111111,1881.777777777778)" opacity="1.0"><path id="ProcessOnPath1257" d="M0.0 0.0L100.0 0.0L100.0 70.0L0.0 70.0Z" stroke="#323232" stroke-width="2.0" stroke-dasharray="none" opacity="1.0" fill="#ffffff"/><g id="ProcessOnG1258" transform="matrix(1.0,0.0,0.0,1.0,10.0,10.625)"><text id="ProcessOnText1259" fill="#000000" font-size="13" x="39.0" y="13.325" font-family="Arial" font-weight="normal" font-style="normal" text-decoration="none" family="Arial" text-anchor="middle" size="13">MaskTransfer</text><text id="ProcessOnText1260" fill="#000000" font-size="13" x="39.0" y="29.575" font-family="Arial" font-weight="normal" font-style="normal" text-decoration="none" family="Arial" text-anchor="middle" size="13">to</text><text id="ProcessOnText1261" fill="#000000" font-size="13" x="39.0" y="45.825" font-family="Arial" font-weight="normal" font-style="normal" text-decoration="none" family="Arial" text-anchor="middle" size="13">creditor</text></g></g><g id="ProcessOnG1262" transform="matrix(1.0,0.0,0.0,1.0,646.3333333333329,328.32098765432096)" opacity="1.0"><path id="ProcessOnPath1263" d="M0.0 0.0L100.0 0.0L100.0 70.0L0.0 70.0Z" stroke="#323232" stroke-width="2.0" stroke-dasharray="none" opacity="1.0" fill="#ffffff"/><g id="ProcessOnG1264" transform="matrix(1.0,0.0,0.0,1.0,10.0,18.75)"><text id="ProcessOnText1265" fill="#000000" font-size="13" x="39.0" y="13.325" font-family="Arial" font-weight="normal" font-style="normal" text-decoration="none" family="Arial" text-anchor="middle" size="13">Transfer </text><text id="ProcessOnText1266" fill="#000000" font-size="13" x="39.0" y="29.575" font-family="Arial" font-weight="normal" font-style="normal" text-decoration="none" family="Arial" text-anchor="middle" size="13">Failed</text></g></g><g id="ProcessOnG1267"><path id="ProcessOnPath1268" d="M745.8888888888885 363.8333333333333L799.2777777777774 363.8333333333333L799.2777777777774 363.8333333333333L837.4305986891665 363.8333333333333" stroke="#323232" stroke-width="2.0" stroke-dasharray="none" fill="none" marker-end="url(#ProcessOnMarker1269)"/></g><g id="ProcessOnG1271" transform="matrix(1.0,0.0,0.0,1.0,589.0,546.5000000000002)" opacity="1.0"><path id="ProcessOnPath1272" d="M18.0 0.0Q9.0 0.0 9.0 9.0L9.0 91.5Q9.0 100.5 0.0 100.5Q9.0 100.5 9.0 109.5L9.0 192.0Q9.0 201.0 18.0 201.0" stroke="#323232" stroke-width="2.0" stroke-dasharray="none" opacity="1.0" fill="none"/><path id="ProcessOnPath1273" d="M207.0 201.0Q216.0 201.0 216.0 192.0L216.0 109.5Q216.0 100.5 225.0 100.5Q216.0 100.5 216.0 91.5L216.0 9.0Q216.0 0.0 207.0 0.0" stroke="#323232" stroke-width="2.0" stroke-dasharray="none" opacity="1.0" fill="none"/><path id="ProcessOnPath1274" d="M0.0 0.0L225.0 0.0L225.0 201.0L0.0 201.0Z" stroke="none" stroke-width="0.0" stroke-dasharray="none" opacity="1.0" fill="none"/></g><g id="ProcessOnG1275" transform="matrix(1.0,0.0,0.0,1.0,634.0,609.0000000000002)" opacity="1.0"><path id="ProcessOnPath1276" d="M0.0 0.0L140.5 0.0L140.5 49.0L0.0 49.0Z" stroke="none" stroke-width="0.0" stroke-dasharray="none" opacity="1.0" fill="none"/><g id="ProcessOnG1277" transform="matrix(1.0,0.0,0.0,1.0,0.0,8.25)"><text id="ProcessOnText1278" fill="#000000" font-size="13" x="69.25" y="13.325" font-family="Arial" font-weight="normal" font-style="normal" text-decoration="none" family="Arial" text-anchor="middle" size="13">Using safedelegate to </text><text id="ProcessOnText1279" fill="#000000" font-size="13" x="69.25" y="29.575" font-family="Arial" font-weight="normal" font-style="normal" text-decoration="none" family="Arial" text-anchor="middle" size="13">call delegatebw</text></g></g><g id="ProcessOnG1280"><path id="ProcessOnPath1281" d="M504.4285714285714 646.9999999999994L544.9285714285713 646.9999999999994L544.9285714285713 646.9999999999994L570.1925034510715 646.9999999999994" stroke="#323232" stroke-width="2.0" stroke-dasharray="none" fill="none" marker-end="url(#ProcessOnMarker1282)"/></g></g></g></svg>